<mxfile host="app.diagrams.net" modified="2024-03-20T17:58:10.472Z" agent="Mozilla/5.0 (Windows NT 10.0; Win64; x64) AppleWebKit/537.36 (KHTML, like Gecko) Chrome/122.0.0.0 Safari/537.36" version="24.0.6" etag="R8CQM__1zx2iTB6i3SUK" type="device">
  <diagram id="R-luJ_l59MD_f56hEKy-" name="Página-1">
    <mxGraphModel dx="1120" dy="1698" grid="1" gridSize="10" guides="1" tooltips="1" connect="1" arrows="1" fold="1" page="1" pageScale="1" pageWidth="827" pageHeight="1169" math="0" shadow="0">
      <root>
        <mxCell id="0" />
        <mxCell id="1" parent="0" />
        <mxCell id="H2Z8aQLLQZkZ1Y8VLX2Y-8" style="edgeStyle=orthogonalEdgeStyle;rounded=0;orthogonalLoop=1;jettySize=auto;html=1;entryX=0.5;entryY=0;entryDx=0;entryDy=0;" edge="1" parent="1" source="H2Z8aQLLQZkZ1Y8VLX2Y-1" target="H2Z8aQLLQZkZ1Y8VLX2Y-3">
          <mxGeometry relative="1" as="geometry" />
        </mxCell>
        <mxCell id="H2Z8aQLLQZkZ1Y8VLX2Y-1" value="" style="ellipse;html=1;shape=startState;fillColor=#000000;strokeColor=#ff0000;" vertex="1" parent="1">
          <mxGeometry x="70" y="-550" width="30" height="30" as="geometry" />
        </mxCell>
        <mxCell id="H2Z8aQLLQZkZ1Y8VLX2Y-42" style="edgeStyle=orthogonalEdgeStyle;rounded=0;orthogonalLoop=1;jettySize=auto;html=1;entryX=0.5;entryY=0;entryDx=0;entryDy=0;" edge="1" parent="1" source="H2Z8aQLLQZkZ1Y8VLX2Y-3" target="H2Z8aQLLQZkZ1Y8VLX2Y-14">
          <mxGeometry relative="1" as="geometry" />
        </mxCell>
        <mxCell id="H2Z8aQLLQZkZ1Y8VLX2Y-3" value="cadastros" style="rounded=1;whiteSpace=wrap;html=1;arcSize=40;fontColor=#000000;fillColor=#ffffc0;strokeColor=#ff0000;" vertex="1" parent="1">
          <mxGeometry x="25" y="-470" width="120" height="40" as="geometry" />
        </mxCell>
        <mxCell id="H2Z8aQLLQZkZ1Y8VLX2Y-44" style="edgeStyle=orthogonalEdgeStyle;rounded=0;orthogonalLoop=1;jettySize=auto;html=1;entryX=0;entryY=0.5;entryDx=0;entryDy=0;" edge="1" parent="1" source="H2Z8aQLLQZkZ1Y8VLX2Y-14" target="H2Z8aQLLQZkZ1Y8VLX2Y-16">
          <mxGeometry relative="1" as="geometry" />
        </mxCell>
        <mxCell id="H2Z8aQLLQZkZ1Y8VLX2Y-14" value="realizar o cadastro do cliente" style="rounded=1;whiteSpace=wrap;html=1;arcSize=40;fontColor=#000000;fillColor=#ffffc0;strokeColor=#ff0000;" vertex="1" parent="1">
          <mxGeometry x="20" y="-395" width="130" height="40" as="geometry" />
        </mxCell>
        <mxCell id="H2Z8aQLLQZkZ1Y8VLX2Y-35" style="edgeStyle=orthogonalEdgeStyle;rounded=0;orthogonalLoop=1;jettySize=auto;html=1;entryX=0;entryY=0.5;entryDx=0;entryDy=0;" edge="1" parent="1" source="H2Z8aQLLQZkZ1Y8VLX2Y-16" target="H2Z8aQLLQZkZ1Y8VLX2Y-26">
          <mxGeometry relative="1" as="geometry" />
        </mxCell>
        <mxCell id="H2Z8aQLLQZkZ1Y8VLX2Y-16" value="realizar o cadastro da conta" style="rounded=1;whiteSpace=wrap;html=1;arcSize=40;fontColor=#000000;fillColor=#ffffc0;strokeColor=#ff0000;" vertex="1" parent="1">
          <mxGeometry x="190" y="-395" width="120" height="40" as="geometry" />
        </mxCell>
        <mxCell id="H2Z8aQLLQZkZ1Y8VLX2Y-46" style="edgeStyle=orthogonalEdgeStyle;rounded=0;orthogonalLoop=1;jettySize=auto;html=1;entryX=0.5;entryY=0;entryDx=0;entryDy=0;" edge="1" parent="1" source="H2Z8aQLLQZkZ1Y8VLX2Y-26" target="H2Z8aQLLQZkZ1Y8VLX2Y-38">
          <mxGeometry relative="1" as="geometry" />
        </mxCell>
        <mxCell id="H2Z8aQLLQZkZ1Y8VLX2Y-63" value="Se retirada" style="edgeLabel;html=1;align=center;verticalAlign=middle;resizable=0;points=[];" vertex="1" connectable="0" parent="H2Z8aQLLQZkZ1Y8VLX2Y-46">
          <mxGeometry x="-0.1692" y="1" relative="1" as="geometry">
            <mxPoint as="offset" />
          </mxGeometry>
        </mxCell>
        <mxCell id="H2Z8aQLLQZkZ1Y8VLX2Y-47" style="edgeStyle=orthogonalEdgeStyle;rounded=0;orthogonalLoop=1;jettySize=auto;html=1;entryX=0.5;entryY=1;entryDx=0;entryDy=0;" edge="1" parent="1" source="H2Z8aQLLQZkZ1Y8VLX2Y-26" target="H2Z8aQLLQZkZ1Y8VLX2Y-36">
          <mxGeometry relative="1" as="geometry" />
        </mxCell>
        <mxCell id="H2Z8aQLLQZkZ1Y8VLX2Y-64" value="se depósito" style="edgeLabel;html=1;align=center;verticalAlign=middle;resizable=0;points=[];" vertex="1" connectable="0" parent="H2Z8aQLLQZkZ1Y8VLX2Y-47">
          <mxGeometry x="0.0182" relative="1" as="geometry">
            <mxPoint as="offset" />
          </mxGeometry>
        </mxCell>
        <mxCell id="H2Z8aQLLQZkZ1Y8VLX2Y-61" style="edgeStyle=orthogonalEdgeStyle;rounded=0;orthogonalLoop=1;jettySize=auto;html=1;exitX=1;exitY=0.5;exitDx=0;exitDy=0;entryX=0;entryY=0.5;entryDx=0;entryDy=0;" edge="1" parent="1" source="H2Z8aQLLQZkZ1Y8VLX2Y-26" target="H2Z8aQLLQZkZ1Y8VLX2Y-40">
          <mxGeometry relative="1" as="geometry" />
        </mxCell>
        <mxCell id="H2Z8aQLLQZkZ1Y8VLX2Y-62" value="se aplicações" style="edgeLabel;html=1;align=center;verticalAlign=middle;resizable=0;points=[];" vertex="1" connectable="0" parent="H2Z8aQLLQZkZ1Y8VLX2Y-61">
          <mxGeometry x="-0.02" y="3" relative="1" as="geometry">
            <mxPoint as="offset" />
          </mxGeometry>
        </mxCell>
        <mxCell id="H2Z8aQLLQZkZ1Y8VLX2Y-26" value="Serviços de depósitos, retirada e aplicações" style="rhombus;whiteSpace=wrap;html=1;fontColor=#000000;fillColor=#ffffc0;strokeColor=#ff0000;" vertex="1" parent="1">
          <mxGeometry x="350" y="-405" width="160" height="60" as="geometry" />
        </mxCell>
        <mxCell id="H2Z8aQLLQZkZ1Y8VLX2Y-34" value="" style="ellipse;html=1;shape=endState;fillColor=#000000;strokeColor=#ff0000;" vertex="1" parent="1">
          <mxGeometry x="830" y="-280" width="40" height="40" as="geometry" />
        </mxCell>
        <mxCell id="H2Z8aQLLQZkZ1Y8VLX2Y-36" value="realizar o depósito" style="rounded=1;whiteSpace=wrap;html=1;arcSize=40;fontColor=#000000;fillColor=#ffffc0;strokeColor=#ff0000;" vertex="1" parent="1">
          <mxGeometry x="370" y="-500" width="120" height="40" as="geometry" />
        </mxCell>
        <mxCell id="H2Z8aQLLQZkZ1Y8VLX2Y-38" value="realizar a retirada" style="rounded=1;whiteSpace=wrap;html=1;arcSize=40;fontColor=#000000;fillColor=#ffffc0;strokeColor=#ff0000;" vertex="1" parent="1">
          <mxGeometry x="370" y="-280" width="120" height="40" as="geometry" />
        </mxCell>
        <mxCell id="H2Z8aQLLQZkZ1Y8VLX2Y-40" value="realizar as aplicações" style="rounded=1;whiteSpace=wrap;html=1;arcSize=40;fontColor=#000000;fillColor=#ffffc0;strokeColor=#ff0000;" vertex="1" parent="1">
          <mxGeometry x="610" y="-395" width="120" height="40" as="geometry" />
        </mxCell>
        <mxCell id="H2Z8aQLLQZkZ1Y8VLX2Y-55" style="edgeStyle=orthogonalEdgeStyle;rounded=0;orthogonalLoop=1;jettySize=auto;html=1;entryX=0.5;entryY=0;entryDx=0;entryDy=0;" edge="1" parent="1" source="H2Z8aQLLQZkZ1Y8VLX2Y-49" target="H2Z8aQLLQZkZ1Y8VLX2Y-34">
          <mxGeometry relative="1" as="geometry" />
        </mxCell>
        <mxCell id="H2Z8aQLLQZkZ1Y8VLX2Y-49" value="" style="shape=line;html=1;strokeWidth=6;strokeColor=#ff0000;rotation=-90;" vertex="1" parent="1">
          <mxGeometry x="720" y="-380" width="120" height="10" as="geometry" />
        </mxCell>
        <mxCell id="H2Z8aQLLQZkZ1Y8VLX2Y-51" style="edgeStyle=orthogonalEdgeStyle;rounded=0;orthogonalLoop=1;jettySize=auto;html=1;entryX=0.25;entryY=0.5;entryDx=0;entryDy=0;entryPerimeter=0;curved=1;" edge="1" parent="1" source="H2Z8aQLLQZkZ1Y8VLX2Y-38" target="H2Z8aQLLQZkZ1Y8VLX2Y-49">
          <mxGeometry relative="1" as="geometry">
            <Array as="points">
              <mxPoint x="690" y="-260" />
              <mxPoint x="690" y="-345" />
            </Array>
          </mxGeometry>
        </mxCell>
        <mxCell id="H2Z8aQLLQZkZ1Y8VLX2Y-53" style="edgeStyle=orthogonalEdgeStyle;rounded=0;orthogonalLoop=1;jettySize=auto;html=1;entryX=0.5;entryY=0.6;entryDx=0;entryDy=0;entryPerimeter=0;" edge="1" parent="1" source="H2Z8aQLLQZkZ1Y8VLX2Y-40" target="H2Z8aQLLQZkZ1Y8VLX2Y-49">
          <mxGeometry relative="1" as="geometry" />
        </mxCell>
        <mxCell id="H2Z8aQLLQZkZ1Y8VLX2Y-54" style="edgeStyle=orthogonalEdgeStyle;rounded=0;orthogonalLoop=1;jettySize=auto;html=1;entryX=0.75;entryY=0.5;entryDx=0;entryDy=0;entryPerimeter=0;curved=1;" edge="1" parent="1" source="H2Z8aQLLQZkZ1Y8VLX2Y-36" target="H2Z8aQLLQZkZ1Y8VLX2Y-49">
          <mxGeometry relative="1" as="geometry">
            <Array as="points">
              <mxPoint x="640" y="-480" />
              <mxPoint x="640" y="-405" />
            </Array>
          </mxGeometry>
        </mxCell>
      </root>
    </mxGraphModel>
  </diagram>
</mxfile>
